<svg id="visual" viewBox="0 0 960 540" width="960" height="540" xmlns="http://www.w3.org/2000/svg" xmlns:xlink="http://www.w3.org/1999/xlink" version="1.1"><rect x="0" y="0" width="960" height="540" fill="#0D1821"></rect><path d="M0 294L10 307.3C20 320.7 40 347.3 60 359.3C80 371.3 100 368.7 120 360.2C140 351.7 160 337.3 180 334.3C200 331.3 220 339.7 240 347C260 354.3 280 360.7 300 353.8C320 347 340 327 360 321.3C380 315.7 400 324.3 420 336.5C440 348.7 460 364.3 480 367C500 369.7 520 359.3 540 345.8C560 332.3 580 315.7 600 312.7C620 309.7 640 320.3 660 322.3C680 324.3 700 317.7 720 312.8C740 308 760 305 780 313.7C800 322.3 820 342.7 840 341.8C860 341 880 319 900 318.8C920 318.7 940 340.3 950 351.2L960 362L960 541L950 541C940 541 920 541 900 541C880 541 860 541 840 541C820 541 800 541 780 541C760 541 740 541 720 541C700 541 680 541 660 541C640 541 620 541 600 541C580 541 560 541 540 541C520 541 500 541 480 541C460 541 440 541 420 541C400 541 380 541 360 541C340 541 320 541 300 541C280 541 260 541 240 541C220 541 200 541 180 541C160 541 140 541 120 541C100 541 80 541 60 541C40 541 20 541 10 541L0 541Z" fill="#344966"></path><path d="M0 348L10 345.8C20 343.7 40 339.3 60 348.3C80 357.3 100 379.7 120 390.2C140 400.7 160 399.3 180 399.8C200 400.3 220 402.7 240 396.3C260 390 280 375 300 370.2C320 365.3 340 370.7 360 376.2C380 381.7 400 387.3 420 390.8C440 394.3 460 395.7 480 388.7C500 381.7 520 366.3 540 360.7C560 355 580 359 600 362.3C620 365.7 640 368.3 660 371.2C680 374 700 377 720 374C740 371 760 362 780 361.5C800 361 820 369 840 377.2C860 385.3 880 393.7 900 386C920 378.3 940 354.7 950 342.8L960 331L960 541L950 541C940 541 920 541 900 541C880 541 860 541 840 541C820 541 800 541 780 541C760 541 740 541 720 541C700 541 680 541 660 541C640 541 620 541 600 541C580 541 560 541 540 541C520 541 500 541 480 541C460 541 440 541 420 541C400 541 380 541 360 541C340 541 320 541 300 541C280 541 260 541 240 541C220 541 200 541 180 541C160 541 140 541 120 541C100 541 80 541 60 541C40 541 20 541 10 541L0 541Z" fill="#5c6085"></path><path d="M0 389L10 391.8C20 394.7 40 400.3 60 399.3C80 398.3 100 390.7 120 388.3C140 386 160 389 180 399C200 409 220 426 240 433C260 440 280 437 300 427.8C320 418.7 340 403.3 360 399.7C380 396 400 404 420 410.2C440 416.3 460 420.7 480 423.5C500 426.3 520 427.7 540 426.2C560 424.7 580 420.3 600 420.5C620 420.7 640 425.3 660 428.3C680 431.3 700 432.7 720 430.7C740 428.7 760 423.3 780 413.7C800 404 820 390 840 394.2C860 398.3 880 420.7 900 421.3C920 422 940 401 950 390.5L960 380L960 541L950 541C940 541 920 541 900 541C880 541 860 541 840 541C820 541 800 541 780 541C760 541 740 541 720 541C700 541 680 541 660 541C640 541 620 541 600 541C580 541 560 541 540 541C520 541 500 541 480 541C460 541 440 541 420 541C400 541 380 541 360 541C340 541 320 541 300 541C280 541 260 541 240 541C220 541 200 541 180 541C160 541 140 541 120 541C100 541 80 541 60 541C40 541 20 541 10 541L0 541Z" fill="#8878a1"></path><path d="M0 426L10 433.5C20 441 40 456 60 462C80 468 100 465 120 458.3C140 451.7 160 441.3 180 437.7C200 434 220 437 240 435.2C260 433.3 280 426.7 300 426C320 425.3 340 430.7 360 431.8C380 433 400 430 420 434.7C440 439.3 460 451.7 480 459.7C500 467.7 520 471.3 540 469.8C560 468.3 580 461.7 600 458.7C620 455.7 640 456.3 660 459.5C680 462.7 700 468.3 720 467.7C740 467 760 460 780 459.3C800 458.7 820 464.3 840 460.7C860 457 880 444 900 439.2C920 434.3 940 437.7 950 439.3L960 441L960 541L950 541C940 541 920 541 900 541C880 541 860 541 840 541C820 541 800 541 780 541C760 541 740 541 720 541C700 541 680 541 660 541C640 541 620 541 600 541C580 541 560 541 540 541C520 541 500 541 480 541C460 541 440 541 420 541C400 541 380 541 360 541C340 541 320 541 300 541C280 541 260 541 240 541C220 541 200 541 180 541C160 541 140 541 120 541C100 541 80 541 60 541C40 541 20 541 10 541L0 541Z" fill="#b790ba"></path><path d="M0 466L10 465.8C20 465.7 40 465.3 60 468.8C80 472.3 100 479.7 120 485C140 490.3 160 493.7 180 496C200 498.3 220 499.7 240 494.7C260 489.7 280 478.3 300 474.8C320 471.3 340 475.7 360 479C380 482.3 400 484.7 420 486C440 487.3 460 487.7 480 484.2C500 480.7 520 473.3 540 475.8C560 478.3 580 490.7 600 494.3C620 498 640 493 660 492.3C680 491.7 700 495.3 720 496.2C740 497 760 495 780 495.7C800 496.3 820 499.7 840 501C860 502.3 880 501.7 900 502C920 502.3 940 503.7 950 504.3L960 505L960 541L950 541C940 541 920 541 900 541C880 541 860 541 840 541C820 541 800 541 780 541C760 541 740 541 720 541C700 541 680 541 660 541C640 541 620 541 600 541C580 541 560 541 540 541C520 541 500 541 480 541C460 541 440 541 420 541C400 541 380 541 360 541C340 541 320 541 300 541C280 541 260 541 240 541C220 541 200 541 180 541C160 541 140 541 120 541C100 541 80 541 60 541C40 541 20 541 10 541L0 541Z" fill="#e6aace"></path></svg>