<svg id="visual" viewBox="0 0 900 600" width="900" height="600" xmlns="http://www.w3.org/2000/svg" xmlns:xlink="http://www.w3.org/1999/xlink" version="1.1"><rect x="0" y="0" width="900" height="600" fill="#002A32"></rect><path d="M0 379L21.5 378.2C43 377.3 86 375.7 128.8 383.7C171.7 391.7 214.3 409.3 257.2 417.2C300 425 343 423 385.8 413C428.7 403 471.3 385 514.2 374.2C557 363.3 600 359.7 642.8 362.2C685.7 364.7 728.3 373.3 771.2 378.5C814 383.7 857 385.3 878.5 386.2L900 387L900 601L878.5 601C857 601 814 601 771.2 601C728.3 601 685.7 601 642.8 601C600 601 557 601 514.2 601C471.3 601 428.7 601 385.8 601C343 601 300 601 257.2 601C214.3 601 171.7 601 128.8 601C86 601 43 601 21.5 601L0 601Z" fill="#eba6a9"></path><path d="M0 458L21.5 448.8C43 439.7 86 421.3 128.8 412.5C171.7 403.7 214.3 404.3 257.2 416C300 427.7 343 450.3 385.8 458.7C428.7 467 471.3 461 514.2 455.5C557 450 600 445 642.8 436.3C685.7 427.7 728.3 415.3 771.2 414C814 412.7 857 422.3 878.5 427.2L900 432L900 601L878.5 601C857 601 814 601 771.2 601C728.3 601 685.7 601 642.8 601C600 601 557 601 514.2 601C471.3 601 428.7 601 385.8 601C343 601 300 601 257.2 601C214.3 601 171.7 601 128.8 601C86 601 43 601 21.5 601L0 601Z" fill="#f18c97"></path><path d="M0 472L21.5 476.8C43 481.7 86 491.3 128.8 492.2C171.7 493 214.3 485 257.2 476.3C300 467.7 343 458.3 385.8 456.3C428.7 454.3 471.3 459.7 514.2 468.2C557 476.7 600 488.3 642.8 493.5C685.7 498.7 728.3 497.3 771.2 491.8C814 486.3 857 476.7 878.5 471.8L900 467L900 601L878.5 601C857 601 814 601 771.2 601C728.3 601 685.7 601 642.8 601C600 601 557 601 514.2 601C471.3 601 428.7 601 385.8 601C343 601 300 601 257.2 601C214.3 601 171.7 601 128.8 601C86 601 43 601 21.5 601L0 601Z" fill="#f46f89"></path><path d="M0 520L21.5 517C43 514 86 508 128.8 507.3C171.7 506.7 214.3 511.3 257.2 509C300 506.7 343 497.3 385.8 493C428.7 488.7 471.3 489.3 514.2 489.8C557 490.3 600 490.7 642.8 492.2C685.7 493.7 728.3 496.3 771.2 499C814 501.7 857 504.3 878.5 505.7L900 507L900 601L878.5 601C857 601 814 601 771.2 601C728.3 601 685.7 601 642.8 601C600 601 557 601 514.2 601C471.3 601 428.7 601 385.8 601C343 601 300 601 257.2 601C214.3 601 171.7 601 128.8 601C86 601 43 601 21.5 601L0 601Z" fill="#f54c7e"></path><path d="M0 550L21.5 551C43 552 86 554 128.8 557.3C171.7 560.7 214.3 565.3 257.2 561.7C300 558 343 546 385.8 543C428.7 540 471.3 546 514.2 549.2C557 552.3 600 552.7 642.8 556.2C685.7 559.7 728.3 566.3 771.2 562.3C814 558.3 857 543.7 878.5 536.3L900 529L900 601L878.5 601C857 601 814 601 771.2 601C728.3 601 685.7 601 642.8 601C600 601 557 601 514.2 601C471.3 601 428.7 601 385.8 601C343 601 300 601 257.2 601C214.3 601 171.7 601 128.8 601C86 601 43 601 21.5 601L0 601Z" fill="#f40076"></path></svg>